<?xml version="1.0" encoding="UTF-8"?>
<svg width="141px" height="54px" viewBox="0 0 141 54" version="1.1" xmlns="http://www.w3.org/2000/svg" xmlns:xlink="http://www.w3.org/1999/xlink">
    <!-- Generator: Sketch 60.1 (88133) - https://sketch.com -->
    <title>Group 6</title>
    <desc>Created with Sketch.</desc>
    <g id="Page-1" stroke="none" stroke-width="1" fill="none" fill-rule="evenodd">
        <g id="Landing" transform="translate(-890.000000, -34.000000)" fill="#0F218B">
            <g id="Group-6" transform="translate(890.000000, 34.000000)">
                <g id="Group-25">
                    <path d="M50.0221424,45.4278616 C45.0704672,37.1315678 42.3428986,32.5614624 42.0481515,27.2042093 C41.8116593,22.8969945 43.5519792,20.1271183 45.0527207,18.5615857 C46.8763723,16.6607724 49.3385141,15.5261518 51.639008,15.5261518 C53.8445964,15.5261518 55.9780411,16.4451259 57.6477606,18.1139097 C59.1427151,19.6089571 60.9127413,22.3666413 60.8544863,27.0121849 C60.7885154,32.2318967 58.438254,36.5547325 51.6648562,48.1851648 C51.0961948,47.2269477 50.5483663,46.3091166 50.0221424,45.4278616 M71.4333631,14.5565046 C69.291045,9.12114634 65.1541683,5.09015721 59.1369282,2.57593251 C52.0437066,-0.387492203 40.1149342,-0.795925128 23.68278,1.36053976 C11.8836345,2.90968927 2.09988062,5.20598147 1.68900925,5.30275569 L4.16156756,15.5170078 C7.09823691,14.8243483 11.5449068,13.9000402 16.6613162,13.0317392 C10.2397632,17.2124617 4.2969815,22.1715689 0,27.0190429 L7.61211546,33.6004518 C11.3662838,29.3656272 16.4695763,25.0991795 22.0674575,21.4568113 C18.0902998,29.3858202 17.1613062,37.9773897 16.5012114,44.0882625 C16.4244383,44.8011152 16.3503657,45.4892027 16.2739783,46.1483342 L26.3270169,47.2772398 C26.4053333,46.5956292 26.4821064,45.8846816 26.5615801,45.1478259 C27.1630341,39.5802603 27.9053031,32.7759659 30.728163,26.7348162 C30.7324068,27.091433 30.74128,27.4491929 30.7609556,27.8092387 C31.2053911,35.884933 34.817587,41.9367507 40.2846838,51.0963924 C40.8371419,52.0226055 41.4142907,52.9880617 42.0138157,54 L51.6648562,48.1851648 L61.3390444,53.9638049 C66.2108601,45.601979 69.4237584,40.0850865 71.0059025,34.7419304 C72.4136674,30.605785 74.46108,22.2393871 71.4333631,14.5565046" id="Fill-1"></path>
                    <path d="M86.669299,9.29709769 L86.669299,11.99176 L89.0628895,11.99176 C90.7007725,11.99176 91.2521322,11.657033 91.2521322,10.6861782 C91.2521322,9.53147984 90.5908451,9.29709769 89.0160239,9.29709769 L86.669299,9.29709769 Z M86.669299,15.121128 L86.669299,18 L83,18 L83,6 L89.0470379,6 C93.2835482,6 95,7.55644398 95,10.6696982 C95,13.6485488 93.1260661,15.1383404 89.189013,15.121128 L86.669299,15.121128 Z" id="Fill-4"></path>
                    <polygon id="Fill-6" points="97 18 97 14.3681753 100.022254 14.3681753 100.022254 9.58165227 97 9.58165227 97 6 107 6 107 9.58165227 103.961028 9.58165227 103.961028 14.3681753 107 14.3681753 107 18"></polygon>
                    <path d="M116.353745,18 C111.783362,18 109,16.2039823 109,12.071472 L109,12.0398226 C109,8.24119642 112.075496,6 116.542861,6 C120.632369,6 123.53642,7.66872446 123.965786,11.1814625 L119.463831,11.1814625 C119.27509,10.1008608 118.312588,9.36944614 116.560156,9.36944614 C114.515215,9.36944614 113.278248,10.2278063 113.278248,12.023824 L113.278248,12.0398226 C113.278248,13.7881923 114.446787,14.6305539 116.474058,14.6305539 C118.398687,14.6305539 119.309304,13.8674898 119.48075,12.6595948 L124,12.6595948 C123.656357,16.1723328 120.941423,18 116.353745,18" id="Fill-8"></path>
                    <polygon id="Fill-10" points="132.490102 12.8117313 130.290744 14.7530747 130.290744 18 126 18 126 6 130.290744 6 130.290744 10.786523 135.564588 6 140.910023 6 135.797355 10.6360057 141 18 136.029732 18"></polygon>
                    <polygon id="Fill-13" points="87.0082889 25.3724784 87.0082889 32 83 32 83 20 86.7207667 20 90.5255329 24.4851222 94.4154085 20 98 20 98 32 94.009103 32 94.009103 25.338786 90.5762285 29.1544542 90.2887063 29.1544542"></polygon>
                    <polygon id="Fill-15" points="112 32 100 32 100 20 111.745218 20 111.745218 23.1297342 103.903807 23.1297342 103.903807 24.7363506 110.913649 24.7363506 110.913649 27.1296121 103.903807 27.1296121 103.903807 28.7530747 112 28.7530747"></polygon>
                    <path d="M120.991275,23.5984985 L119.483073,27.0966521 L122.516548,27.0966521 L120.991275,23.5984985 Z M123.747843,29.9414655 L118.269606,29.9414655 L117.385775,32 L113,32 L118.63376,20 L123.401138,20 L129,32 L124.649502,32 L123.747843,29.9414655 Z" id="Fill-17"></path>
                    <polygon id="Fill-19" points="128 32 128 20 132.594444 20 132.594444 28.2345042 140 28.2345042 140 32"></polygon>
                    <path d="M83,41.4547074 L83,36 L87.1245661,36 L87.1245661,41.4219293 C87.1245661,43.6202013 87.9494072,44.3691102 89.5330297,44.3691102 C91.0838031,44.3691102 91.8754339,43.6365904 91.8754339,41.4219293 L91.8754339,36 L96,36 L96,41.4547074 C96,46.1113387 93.6409908,48 89.4998195,48 C84.9633743,48 83,46.0625278 83,41.4547074" id="Fill-21"></path>
                    <path d="M102.669299,39.2970977 L102.669299,41.9913938 L105.062889,41.9913938 C106.700772,41.9913938 107.252132,41.657033 107.252132,40.6861782 C107.252132,39.5314798 106.590501,39.2970977 105.015679,39.2970977 L102.669299,39.2970977 Z M102.669299,45.121128 L102.669299,48 L99,48 L99,36 L105.047038,36 C109.283204,36 111,37.556444 111,40.6693319 C111,43.6485488 109.125722,45.1379742 105.189013,45.121128 L102.669299,45.121128 Z" id="Fill-23"></path>
                </g>
            </g>
        </g>
    </g>
</svg>